<svg xmlns="http://www.w3.org/2000/svg">
  <symbol id="report-harassment" viewBox="0 0 20 20">
    <path d="M10 2l8 14H2z" fill="none" stroke="#ef4444" stroke-width="1.35" stroke-linejoin="round"/>
    <path d="M10 8v3" fill="none" stroke="#ef4444" stroke-width="1.5" stroke-linecap="round"/>
    <circle cx="10" cy="13.5" r="0.75" fill="#ef4444"/>
  </symbol>
  <symbol id="report-impersonation" viewBox="0 0 20 20">
    <circle cx="8" cy="6" r="3" fill="none" stroke="#ef4444" stroke-width="1.35"/>
    <path d="M2 16c0-3.314 2.686-6 6-6s6 2.686 6 6" fill="none" stroke="#ef4444" stroke-width="1.35" stroke-linecap="round"/>
    <circle cx="14" cy="6" r="2" fill="none" stroke="#ef4444" stroke-width="1" stroke-dasharray="2 2"/>
    <path d="M13 13c1.5 0 3 1.5 3 3" fill="none" stroke="#ef4444" stroke-width="1" stroke-dasharray="2 2" stroke-linecap="round"/>
  </symbol>
  <symbol id="report-spam" viewBox="0 0 20 20">
    <rect x="2" y="4" width="16" height="12" rx="2" fill="none" stroke="#ef4444" stroke-width="1.35"/>
    <path d="M2 7l8 4 8-4" fill="none" stroke="#ef4444" stroke-width="1.35" stroke-linecap="round"/>
    <path d="M7 10l-2 3M13 10l2 3" fill="none" stroke="#ef4444" stroke-width="1.35" stroke-linecap="round"/>
  </symbol>
  <symbol id="report-safety-risk" viewBox="0 0 20 20">
    <path d="M10 2l7 4v4c0 4.418-3.134 8.27-7 9.5-3.866-1.23-7-5.082-7-9.5V6z" fill="none" stroke="#ef4444" stroke-width="1.35" stroke-linejoin="round"/>
    <path d="M10 7v4" fill="none" stroke="#ef4444" stroke-width="1.5" stroke-linecap="round"/>
    <circle cx="10" cy="13.5" r="0.75" fill="#ef4444"/>
  </symbol>
  <symbol id="report-other" viewBox="0 0 20 20">
    <circle cx="10" cy="10" r="7.5" fill="none" stroke="#ef4444" stroke-width="1.35"/>
    <circle cx="6.5" cy="8.75" r="1" fill="#ef4444"/>
    <circle cx="10" cy="8.75" r="1" fill="#ef4444"/>
    <circle cx="13.5" cy="8.75" r="1" fill="#ef4444"/>
  </symbol>
</svg>
